<?xml version="1.0" standalone="no"?>
<!DOCTYPE svg PUBLIC "-//W3C//DTD SVG 20010904//EN"
 "http://www.w3.org/TR/2001/REC-SVG-20010904/DTD/svg10.dtd">
<svg version="1.0" xmlns="http://www.w3.org/2000/svg"
 width="205.000000pt" height="205.000000pt" viewBox="0 0 205.000000 205.000000"
 preserveAspectRatio="xMidYMid meet">
<metadata>
Created by potrace 1.14, written by Peter Selinger 2001-2017
</metadata>
<g transform="translate(0.000000,205.000000) scale(0.100000,-0.100000)"
fill="#000000" stroke="none">
<path d="M237 2032 c-16 -17 -17 -101 -17 -1009 0 -946 1 -991 18 -1006 17
-16 83 -17 748 -17 l730 0 52 53 52 53 0 955 c0 913 -1 957 -18 972 -17 16
-86 17 -784 17 -728 0 -766 -1 -781 -18z m476 -58 c3 -3 0 -12 -6 -19 -13 -14
-41 0 -31 16 6 10 28 12 37 3z m-293 -39 c0 -8 -7 -15 -15 -15 -8 0 -15 -4
-15 -10 0 -5 -4 -10 -10 -10 -11 0 -14 33 -3 43 12 13 43 7 43 -8z m45 -10 c0
-16 -6 -25 -15 -25 -9 0 -15 9 -15 25 0 16 6 25 15 25 9 0 15 -9 15 -25z m48
18 c-7 -2 -13 -11 -13 -18 0 -7 6 -16 13 -18 6 -3 2 -6 -10 -6 -16 -1 -23 5
-23 17 0 23 9 32 29 31 10 0 12 -2 4 -6z m65 -15 c-4 -30 -48 -39 -48 -10 0
24 8 32 32 32 14 0 19 -6 16 -22z m92 -3 c0 -20 -5 -25 -25 -25 -26 0 -29 7
-19 34 10 27 44 20 44 -9z m511 10 c7 17 8 16 8 -7 1 -19 -4 -28 -14 -28 -10
0 -15 9 -14 28 1 21 2 23 7 7 l5 -20 8 20z m40 0 c7 17 8 16 8 -7 1 -19 -4
-28 -14 -28 -10 0 -15 9 -14 28 1 21 2 23 7 7 l5 -20 8 20z m40 0 c7 17 8 16
8 -7 1 -19 -4 -28 -14 -28 -10 0 -15 9 -14 28 1 21 2 23 7 7 l5 -20 8 20z m69
4 c0 -6 -7 -17 -15 -25 -13 -14 -15 -13 -15 10 0 16 6 26 15 26 8 0 15 -5 15
-11z m35 -14 c0 -14 -4 -25 -10 -25 -5 0 -10 11 -10 25 0 14 5 25 10 25 6 0
10 -11 10 -25z m38 18 c-7 -2 -13 -11 -13 -18 0 -7 6 -16 13 -18 9 -4 9 -6 0
-6 -6 -1 -15 4 -18 9 -9 15 2 40 17 39 10 0 10 -2 1 -6z m45 -15 c-4 -27 -28
-36 -28 -10 0 20 8 32 22 32 5 0 8 -10 6 -22z m82 -3 c0 -16 -6 -25 -15 -25
-9 0 -15 9 -15 25 0 16 6 25 15 25 9 0 15 -9 15 -25z m53 18 c-7 -2 -13 -11
-13 -18 0 -7 6 -16 13 -18 9 -4 9 -6 0 -6 -6 -1 -15 4 -18 9 -9 15 2 40 17 39
10 0 10 -2 1 -6z m45 -15 c-4 -27 -28 -36 -28 -10 0 20 8 32 22 32 5 0 8 -10
6 -22z m41 -5 c-1 -22 -2 -24 -7 -8 l-5 20 -8 -20 c-7 -17 -8 -16 -8 8 -1 18
4 27 14 27 10 0 15 -9 14 -27z m-182 1 c-3 -3 -12 -4 -19 -1 -8 3 -5 6 6 6 11
1 17 -2 13 -5z m-1005 -139 c-2 -14 -6 -25 -7 -25 -1 0 -5 11 -7 25 -3 16 -1
25 7 25 8 0 10 -9 7 -25z m48 -2 c0 -20 -3 -24 -9 -14 -7 11 -9 11 -14 0 -3
-8 -6 -2 -6 14 -1 18 4 27 14 27 10 0 15 -10 15 -27z m40 16 c0 -5 -6 -7 -12
-3 -9 5 -8 2 1 -9 8 -10 11 -20 7 -24 -3 -3 -6 0 -6 8 0 11 -2 11 -10 -1 -8
-12 -10 -9 -10 13 0 17 5 27 15 27 8 0 15 -5 15 -11z m33 4 c-7 -2 -13 -11
-13 -19 0 -9 5 -12 10 -9 6 3 10 1 10 -4 0 -6 -7 -11 -15 -11 -8 0 -15 8 -15
18 0 21 9 32 24 31 6 0 5 -3 -1 -6z m39 -2 c-8 -4 -14 -12 -14 -16 0 -4 6 -12
14 -16 10 -7 9 -9 -4 -9 -13 0 -18 8 -18 25 0 17 5 25 18 25 13 0 14 -2 4 -9z
m40 -16 c-2 -14 -6 -25 -7 -25 -1 0 -5 11 -7 25 -3 16 -1 25 7 25 8 0 10 -9 7
-25z m128 0 c0 -16 -6 -25 -15 -25 -9 0 -15 9 -15 25 0 16 6 25 15 25 9 0 15
-9 15 -25z m32 0 c3 -15 1 -25 -6 -25 -6 0 -11 11 -11 25 0 14 3 25 6 25 4 0
9 -11 11 -25z m48 10 c0 -8 -6 -15 -12 -15 -9 0 -8 -4 2 -10 13 -8 12 -10 -2
-10 -10 0 -18 7 -18 15 0 8 6 15 13 15 8 0 7 4 -3 10 -13 8 -12 10 3 10 9 0
17 -7 17 -15z m40 -10 c0 -16 -6 -25 -15 -25 -9 0 -15 9 -15 25 0 16 6 25 15
25 9 0 15 -9 15 -25z m31 16 c6 10 9 6 9 -14 0 -25 -2 -27 -15 -13 -8 8 -15
21 -14 28 0 10 2 10 6 -1 5 -11 7 -11 14 0z m321 -16 c-2 -14 -6 -25 -7 -25
-1 0 -5 11 -7 25 -3 16 -1 25 7 25 8 0 10 -9 7 -25z m43 0 c0 -14 -4 -25 -10
-25 -5 0 -10 11 -10 25 0 14 5 25 10 25 6 0 10 -11 10 -25z m44 -2 c-1 -22 -2
-24 -7 -8 l-5 20 -8 -20 c-7 -17 -8 -16 -8 8 -1 18 4 27 14 27 10 0 15 -9 14
-27z m33 18 c-8 -4 -14 -12 -14 -16 0 -4 6 -12 14 -16 10 -7 9 -9 -4 -9 -13 0
-18 8 -18 25 0 17 5 25 18 25 13 0 14 -2 4 -9z m120 -16 c3 -15 1 -25 -6 -25
-6 0 -11 11 -11 25 0 14 3 25 6 25 4 0 9 -11 11 -25z m40 0 c3 -15 1 -25 -6
-25 -6 0 -11 11 -11 25 0 14 3 25 6 25 4 0 9 -11 11 -25z m-1081 -62 c-10 -4
-11 -7 -1 -13 14 -9 5 -30 -13 -29 -8 0 -7 3 2 6 10 4 11 7 1 13 -14 9 -5 30
13 29 8 0 7 -3 -2 -6z m42 0 c-7 -2 -13 -11 -13 -18 0 -7 6 -16 13 -18 9 -4 9
-6 0 -6 -6 -1 -15 4 -18 9 -9 15 2 40 17 39 10 0 10 -2 1 -6z m47 -4 c0 -5 -6
-7 -12 -3 -9 5 -8 2 1 -9 8 -10 11 -20 7 -24 -3 -3 -6 0 -6 8 0 11 -2 11 -10
-1 -8 -12 -10 -9 -10 13 0 17 5 27 15 27 8 0 15 -5 15 -11z m120 -4 c0 -8 -6
-15 -12 -15 -9 0 -8 -4 2 -10 13 -8 12 -10 -2 -10 -10 0 -18 7 -18 15 0 8 6
15 13 15 8 0 7 4 -3 10 -13 8 -12 10 3 10 9 0 17 -7 17 -15z m32 -10 c3 -15 1
-25 -6 -25 -6 0 -11 11 -11 25 0 14 3 25 6 25 4 0 9 -11 11 -25z m361 16 c3 8
6 1 6 -16 0 -21 -2 -26 -8 -16 -7 11 -9 11 -14 0 -3 -8 -6 0 -6 16 0 21 2 26
8 16 7 -11 9 -11 14 0z m42 -16 c0 -14 -4 -25 -10 -25 -5 0 -10 11 -10 25 0
14 5 25 10 25 6 0 10 -11 10 -25z m76 18 c-10 -4 -11 -7 -1 -13 14 -9 5 -30
-13 -29 -8 0 -7 3 2 6 10 4 11 7 1 13 -14 9 -5 30 13 29 8 0 7 -3 -2 -6z m42
0 c-7 -2 -13 -11 -13 -18 0 -7 6 -16 13 -18 9 -4 9 -6 0 -6 -6 -1 -15 4 -18 9
-9 15 2 40 17 39 10 0 10 -2 1 -6z m47 -4 c0 -5 -6 -7 -12 -3 -9 5 -8 2 1 -9
8 -10 11 -20 7 -24 -3 -3 -6 0 -6 8 0 11 -2 11 -10 -1 -8 -12 -10 -9 -10 13 0
17 5 27 15 27 8 0 15 -5 15 -11z m112 -14 c3 -15 1 -25 -6 -25 -6 0 -11 11
-11 25 0 14 3 25 6 25 4 0 9 -11 11 -25z m48 0 c0 -16 -6 -25 -15 -25 -9 0
-15 9 -15 25 0 16 6 25 15 25 9 0 15 -9 15 -25z m40 0 c0 -17 -5 -25 -17 -25
-14 0 -15 2 -5 9 8 4 14 12 14 16 0 4 -6 12 -14 16 -10 7 -9 9 5 9 12 0 17 -8
17 -25z m-323 -1 c-3 -3 -12 -4 -19 -1 -8 3 -5 6 6 6 11 1 17 -2 13 -5z m-658
-91 c-1 -22 -2 -23 -6 -8 -3 11 -10 23 -17 27 -7 5 -5 8 7 8 12 0 17 -7 16
-27z m81 -12 c0 -6 -7 -11 -15 -11 -9 0 -15 10 -15 26 0 23 2 24 15 10 8 -8
15 -19 15 -25z m79 12 c-1 -22 -2 -23 -6 -8 -3 11 -10 23 -17 27 -7 5 -5 8 7
8 12 0 17 -7 16 -27z m81 2 c0 -17 -5 -25 -17 -25 -14 0 -15 2 -5 9 8 4 14 12
14 16 0 4 -6 12 -14 16 -10 7 -9 9 5 9 12 0 17 -8 17 -25z m79 -2 c-1 -22 -2
-23 -6 -8 -3 11 -10 23 -17 27 -7 5 -5 8 7 8 12 0 17 -7 16 -27z m81 2 c0 -16
-6 -25 -15 -25 -9 0 -15 9 -15 25 0 16 6 25 15 25 9 0 15 -9 15 -25z m79 -2
c-1 -22 -2 -23 -6 -8 -3 11 -10 23 -17 27 -7 5 -5 8 7 8 12 0 17 -7 16 -27z
m72 18 c6 10 9 6 9 -14 0 -25 -2 -27 -15 -13 -8 8 -15 21 -14 28 0 10 2 10 6
-1 5 -11 7 -11 14 0z m81 -16 c3 -15 1 -25 -6 -25 -6 0 -11 11 -11 25 0 14 3
25 6 25 4 0 9 -11 11 -25z m88 0 c0 -16 -6 -25 -15 -25 -9 0 -15 9 -15 25 0
16 6 25 15 25 9 0 15 -9 15 -25z m79 -2 c-1 -22 -2 -23 -6 -8 -3 11 -10 23
-17 27 -7 5 -5 8 7 8 12 0 17 -7 16 -27z m81 12 c0 -8 -6 -15 -12 -15 -9 0 -8
-4 2 -10 13 -8 12 -10 -2 -10 -10 0 -18 7 -18 15 0 8 6 15 13 15 8 0 7 4 -3
10 -13 8 -12 10 3 10 9 0 17 -7 17 -15z m80 -10 c0 -17 -5 -25 -17 -25 -14 0
-15 2 -5 9 8 4 14 12 14 16 0 4 -6 12 -14 16 -10 7 -9 9 5 9 12 0 17 -8 17
-25z m71 16 c6 10 9 6 9 -14 0 -25 -2 -27 -15 -13 -8 8 -15 21 -14 28 0 10 2
10 6 -1 5 -11 7 -11 14 0z m-1031 -96 c0 -16 -6 -25 -15 -25 -9 0 -15 9 -15
25 0 16 6 25 15 25 9 0 15 -9 15 -25z m80 -14 c0 -6 -7 -11 -15 -11 -9 0 -15
10 -15 26 0 23 2 24 15 10 8 -8 15 -19 15 -25z m70 29 c-10 -6 -11 -10 -2 -10
6 0 12 -7 12 -15 0 -8 -8 -15 -17 -15 -15 0 -16 2 -3 10 10 6 11 10 3 10 -7 0
-13 7 -13 15 0 8 8 15 18 15 14 0 15 -2 2 -10z m90 -29 c0 -6 -7 -11 -15 -11
-9 0 -15 10 -15 26 0 23 2 24 15 10 8 -8 15 -19 15 -25z m80 14 c0 -17 -5 -25
-17 -25 -14 0 -15 2 -5 9 8 4 14 12 14 16 0 4 -6 12 -14 16 -10 7 -9 9 5 9 12
0 17 -8 17 -25z m80 10 c0 -8 -6 -15 -12 -15 -9 0 -8 -4 2 -10 13 -8 12 -10
-2 -10 -10 0 -18 7 -18 15 0 8 6 15 13 15 8 0 7 4 -3 10 -13 8 -12 10 3 10 9
0 17 -7 17 -15z m80 -10 c0 -16 -6 -25 -15 -25 -9 0 -15 9 -15 25 0 16 6 25
15 25 9 0 15 -9 15 -25z m70 15 c-10 -6 -11 -10 -2 -10 6 0 12 -7 12 -15 0 -8
-8 -15 -17 -15 -15 0 -16 2 -3 10 10 6 11 10 3 10 -7 0 -13 7 -13 15 0 8 8 15
18 15 14 0 15 -2 2 -10z m81 1 c6 10 9 6 9 -14 0 -25 -2 -27 -15 -13 -8 8 -15
21 -14 28 0 10 2 10 6 -1 5 -11 7 -11 14 0z m89 -16 c0 -16 -6 -25 -15 -25 -9
0 -15 9 -15 25 0 16 6 25 15 25 9 0 15 -9 15 -25z m80 10 c0 -8 -6 -15 -12
-15 -9 0 -8 -4 2 -10 13 -8 12 -10 -2 -10 -10 0 -18 7 -18 15 0 8 6 15 13 15
8 0 7 4 -3 10 -13 8 -12 10 3 10 9 0 17 -7 17 -15z m80 -10 c0 -16 -6 -25 -15
-25 -9 0 -15 9 -15 25 0 16 6 25 15 25 9 0 15 -9 15 -25z m80 0 c0 -16 -6 -25
-15 -25 -9 0 -15 9 -15 25 0 16 6 25 15 25 9 0 15 -9 15 -25z m79 -2 c-1 -22
-2 -23 -6 -8 -3 11 -10 23 -17 27 -7 5 -5 8 7 8 12 0 17 -7 16 -27z m-1048
-62 c6 10 9 6 9 -14 0 -25 -2 -27 -15 -13 -8 8 -15 21 -14 28 0 10 2 10 6 -1
5 -11 7 -11 14 0z m81 -16 c3 -15 1 -25 -6 -25 -6 0 -11 11 -11 25 0 14 3 25
6 25 4 0 9 -11 11 -25z m78 15 c-10 -6 -11 -10 -2 -10 6 0 12 -7 12 -15 0 -8
-8 -15 -17 -15 -15 0 -16 2 -3 10 10 6 11 10 3 10 -7 0 -13 7 -13 15 0 8 8 15
18 15 14 0 15 -2 2 -10z m89 -17 c-1 -22 -2 -23 -6 -8 -3 11 -10 23 -17 27 -7
5 -5 8 7 8 12 0 17 -7 16 -27z m81 2 c0 -16 -6 -25 -15 -25 -9 0 -15 9 -15 25
0 16 6 25 15 25 9 0 15 -9 15 -25z m70 15 c-10 -6 -11 -10 -2 -10 6 0 12 -7
12 -15 0 -8 -8 -15 -17 -15 -15 0 -16 2 -3 10 10 6 11 10 3 10 -7 0 -13 7 -13
15 0 8 8 15 18 15 14 0 15 -2 2 -10z m90 -15 c0 -16 -6 -25 -15 -25 -9 0 -15
9 -15 25 0 16 6 25 15 25 9 0 15 -9 15 -25z m72 0 c3 -15 1 -25 -6 -25 -6 0
-11 11 -11 25 0 14 3 25 6 25 4 0 9 -11 11 -25z m87 -2 c-1 -22 -2 -23 -6 -8
-3 11 -10 23 -17 27 -7 5 -5 8 7 8 12 0 17 -7 16 -27z m81 12 c0 -8 -6 -15
-12 -15 -9 0 -8 -4 2 -10 13 -8 12 -10 -2 -10 -10 0 -18 7 -18 15 0 8 6 15 13
15 8 0 7 4 -3 10 -13 8 -12 10 3 10 9 0 17 -7 17 -15z m80 -10 c0 -16 -6 -25
-15 -25 -9 0 -15 9 -15 25 0 16 6 25 15 25 9 0 15 -9 15 -25z m79 -2 c-1 -22
-2 -23 -6 -8 -3 11 -10 23 -17 27 -7 5 -5 8 7 8 12 0 17 -7 16 -27z m81 2 c0
-16 -6 -25 -15 -25 -9 0 -15 9 -15 25 0 16 6 25 15 25 9 0 15 -9 15 -25z m80
0 c0 -17 -5 -25 -17 -25 -14 0 -15 2 -5 9 8 4 14 12 14 16 0 4 -6 12 -14 16
-10 7 -9 9 5 9 12 0 17 -8 17 -25z m-1041 -82 c-1 -22 -2 -23 -6 -8 -3 11 -10
23 -17 27 -7 5 -5 8 7 8 12 0 17 -7 16 -27z m72 18 c6 10 9 6 9 -14 0 -25 -2
-27 -15 -13 -8 8 -15 21 -14 28 0 10 2 10 6 -1 5 -11 7 -11 14 0z m89 -16 c0
-16 -6 -25 -15 -25 -9 0 -15 9 -15 25 0 16 6 25 15 25 9 0 15 -9 15 -25z m79
-2 c-1 -22 -2 -23 -6 -8 -3 11 -10 23 -17 27 -7 5 -5 8 7 8 12 0 17 -7 16 -27z
m72 18 c6 10 9 6 9 -14 0 -25 -2 -27 -15 -13 -8 8 -15 21 -14 28 0 10 2 10 6
-1 5 -11 7 -11 14 0z m89 -30 c0 -6 -7 -11 -15 -11 -9 0 -15 10 -15 26 0 23 2
24 15 10 8 -8 15 -19 15 -25z m71 30 c6 10 9 6 9 -14 0 -25 -2 -27 -15 -13 -8
8 -15 21 -14 28 0 10 2 10 6 -1 5 -11 7 -11 14 0z m89 -6 c0 -8 -6 -15 -12
-15 -9 0 -8 -4 2 -10 13 -8 12 -10 -2 -10 -10 0 -18 7 -18 15 0 8 6 15 13 15
8 0 7 4 -3 10 -13 8 -12 10 3 10 9 0 17 -7 17 -15z m71 6 c6 10 9 6 9 -14 0
-25 -2 -27 -15 -13 -8 8 -15 21 -14 28 0 10 2 10 6 -1 5 -11 7 -11 14 0z m80
0 c6 10 9 6 9 -14 0 -25 -2 -27 -15 -13 -8 8 -15 21 -14 28 0 10 2 10 6 -1 5
-11 7 -11 14 0z m80 0 c6 10 9 6 9 -14 0 -25 -2 -27 -15 -13 -8 8 -15 21 -14
28 0 10 2 10 6 -1 5 -11 7 -11 14 0z m89 -16 c0 -17 -5 -25 -17 -25 -14 0 -15
2 -5 9 8 4 14 12 14 16 0 4 -6 12 -14 16 -10 7 -9 9 5 9 12 0 17 -8 17 -25z
m80 -14 c0 -6 -7 -11 -15 -11 -9 0 -15 10 -15 26 0 23 2 24 15 10 8 -8 15 -19
15 -25z m80 14 c0 -17 -5 -25 -17 -25 -14 0 -15 2 -5 9 8 4 14 12 14 16 0 4
-6 12 -14 16 -10 7 -9 9 5 9 12 0 17 -8 17 -25z m-1040 -80 c0 -16 -6 -25 -15
-25 -9 0 -15 9 -15 25 0 16 6 25 15 25 9 0 15 -9 15 -25z m80 0 c0 -16 -6 -25
-15 -25 -9 0 -15 9 -15 25 0 16 6 25 15 25 9 0 15 -9 15 -25z m71 16 c6 10 9
6 9 -14 0 -25 -2 -27 -15 -13 -8 8 -15 21 -14 28 0 10 2 10 6 -1 5 -11 7 -11
14 0z m89 -16 c0 -16 -6 -25 -15 -25 -9 0 -15 9 -15 25 0 16 6 25 15 25 9 0
15 -9 15 -25z m70 15 c-10 -6 -11 -10 -2 -10 6 0 12 -7 12 -15 0 -8 -8 -15
-17 -15 -15 0 -16 2 -3 10 10 6 11 10 3 10 -7 0 -13 7 -13 15 0 8 8 15 18 15
14 0 15 -2 2 -10z m89 -17 c-1 -22 -2 -23 -6 -8 -3 11 -10 23 -17 27 -7 5 -5
8 7 8 12 0 17 -7 16 -27z m71 17 c-10 -6 -11 -10 -2 -10 6 0 12 -7 12 -15 0
-8 -8 -15 -17 -15 -15 0 -16 2 -3 10 10 6 11 10 3 10 -7 0 -13 7 -13 15 0 8 8
15 18 15 14 0 15 -2 2 -10z m81 1 c6 10 9 6 9 -14 0 -25 -2 -27 -15 -13 -8 8
-15 21 -14 28 0 10 2 10 6 -1 5 -11 7 -11 14 0z m80 0 c6 10 9 6 9 -14 0 -25
-2 -27 -15 -13 -8 8 -15 21 -14 28 0 10 2 10 6 -1 5 -11 7 -11 14 0z m89 -6
c0 -8 -6 -15 -12 -15 -9 0 -8 -4 2 -10 13 -8 12 -10 -2 -10 -10 0 -18 7 -18
15 0 8 6 15 13 15 8 0 7 4 -3 10 -13 8 -12 10 3 10 9 0 17 -7 17 -15z m80 0
c0 -8 -6 -15 -12 -15 -9 0 -8 -4 2 -10 13 -8 12 -10 -2 -10 -10 0 -18 7 -18
15 0 8 6 15 13 15 8 0 7 4 -3 10 -13 8 -12 10 3 10 9 0 17 -7 17 -15z m80 -24
c0 -6 -7 -11 -15 -11 -9 0 -15 10 -15 26 0 23 2 24 15 10 8 -8 15 -19 15 -25z
m80 14 c0 -17 -5 -25 -17 -25 -14 0 -15 2 -5 9 8 4 14 12 14 16 0 4 -6 12 -14
16 -10 7 -9 9 5 9 12 0 17 -8 17 -25z m79 -2 c-1 -22 -2 -23 -6 -8 -3 11 -10
23 -17 27 -7 5 -5 8 7 8 12 0 17 -7 16 -27z m-1049 -63 c-10 -6 -11 -10 -2
-10 6 0 12 -7 12 -15 0 -8 -8 -15 -17 -15 -15 0 -16 2 -3 10 10 6 11 10 3 10
-7 0 -13 7 -13 15 0 8 8 15 18 15 14 0 15 -2 2 -10z m81 1 c6 10 9 6 9 -14 0
-25 -2 -27 -15 -13 -8 8 -15 21 -14 28 0 10 2 10 6 -1 5 -11 7 -11 14 0z m81
-16 c3 -15 1 -25 -6 -25 -6 0 -11 11 -11 25 0 14 3 25 6 25 4 0 9 -11 11 -25z
m78 15 c-10 -6 -11 -10 -2 -10 6 0 12 -7 12 -15 0 -8 -8 -15 -17 -15 -15 0
-16 2 -3 10 10 6 11 10 3 10 -7 0 -13 7 -13 15 0 8 8 15 18 15 14 0 15 -2 2
-10z m81 1 c6 10 9 6 9 -14 0 -25 -2 -27 -15 -13 -8 8 -15 21 -14 28 0 10 2
10 6 -1 5 -11 7 -11 14 0z m88 -18 c-1 -22 -2 -23 -6 -8 -3 11 -10 23 -17 27
-7 5 -5 8 7 8 12 0 17 -7 16 -27z m81 2 c0 -17 -5 -25 -17 -25 -14 0 -15 2 -5
9 8 4 14 12 14 16 0 4 -6 12 -14 16 -10 7 -9 9 5 9 12 0 17 -8 17 -25z m80 0
c0 -16 -6 -25 -15 -25 -9 0 -15 9 -15 25 0 16 6 25 15 25 9 0 15 -9 15 -25z
m80 0 c0 -16 -6 -25 -15 -25 -9 0 -15 9 -15 25 0 16 6 25 15 25 9 0 15 -9 15
-25z m80 -14 c0 -6 -7 -11 -15 -11 -9 0 -15 10 -15 26 0 23 2 24 15 10 8 -8
15 -19 15 -25z m79 12 c-1 -22 -2 -23 -6 -8 -3 11 -10 23 -17 27 -7 5 -5 8 7
8 12 0 17 -7 16 -27z m81 2 c0 -17 -5 -25 -17 -25 -14 0 -15 2 -5 9 8 4 14 12
14 16 0 4 -6 12 -14 16 -10 7 -9 9 5 9 12 0 17 -8 17 -25z m70 15 c-10 -6 -11
-10 -2 -10 6 0 12 -7 12 -15 0 -8 -8 -15 -17 -15 -15 0 -16 2 -3 10 10 6 11
10 3 10 -7 0 -13 7 -13 15 0 8 8 15 18 15 14 0 15 -2 2 -10z m90 -5 c0 -8 -6
-15 -12 -15 -9 0 -8 -4 2 -10 13 -8 12 -10 -2 -10 -10 0 -18 7 -18 15 0 8 6
15 13 15 8 0 7 4 -3 10 -13 8 -12 10 3 10 9 0 17 -7 17 -15z m-1040 -90 c0
-17 -5 -25 -17 -25 -14 0 -15 2 -5 9 8 4 14 12 14 16 0 4 -6 12 -14 16 -10 7
-9 9 5 9 12 0 17 -8 17 -25z m79 -2 c-1 -22 -2 -23 -6 -8 -3 11 -10 23 -17 27
-7 5 -5 8 7 8 12 0 17 -7 16 -27z m71 17 c-10 -6 -11 -10 -2 -10 6 0 12 -7 12
-15 0 -8 -8 -15 -17 -15 -15 0 -16 2 -3 10 10 6 11 10 3 10 -7 0 -13 7 -13 15
0 8 8 15 18 15 14 0 15 -2 2 -10z m90 -15 c0 -16 -6 -25 -15 -25 -9 0 -15 9
-15 25 0 16 6 25 15 25 9 0 15 -9 15 -25z m71 16 c6 10 9 6 9 -14 0 -25 -2
-27 -15 -13 -8 8 -15 21 -14 28 0 10 2 10 6 -1 5 -11 7 -11 14 0z m89 -30 c0
-6 -7 -11 -15 -11 -9 0 -15 10 -15 26 0 23 2 24 15 10 8 -8 15 -19 15 -25z
m71 30 c6 10 9 6 9 -14 0 -25 -2 -27 -15 -13 -8 8 -15 21 -14 28 0 10 2 10 6
-1 5 -11 7 -11 14 0z m89 -16 c0 -17 -5 -25 -17 -25 -14 0 -15 2 -5 9 8 4 14
12 14 16 0 4 -6 12 -14 16 -10 7 -9 9 5 9 12 0 17 -8 17 -25z m80 -14 c0 -6
-7 -11 -15 -11 -9 0 -15 10 -15 26 0 23 2 24 15 10 8 -8 15 -19 15 -25z m70
29 c-10 -6 -11 -10 -2 -10 6 0 12 -7 12 -15 0 -8 -8 -15 -17 -15 -15 0 -16 2
-3 10 10 6 11 10 3 10 -7 0 -13 7 -13 15 0 8 8 15 18 15 14 0 15 -2 2 -10z
m80 0 c-10 -6 -11 -10 -2 -10 6 0 12 -7 12 -15 0 -8 -8 -15 -17 -15 -15 0 -16
2 -3 10 10 6 11 10 3 10 -7 0 -13 7 -13 15 0 8 8 15 18 15 14 0 15 -2 2 -10z
m82 -15 c3 -15 1 -25 -6 -25 -6 0 -11 11 -11 25 0 14 3 25 6 25 4 0 9 -11 11
-25z m88 0 c0 -16 -6 -25 -15 -25 -9 0 -15 9 -15 25 0 16 6 25 15 25 9 0 15
-9 15 -25z m80 -14 c0 -6 -7 -11 -15 -11 -9 0 -15 10 -15 26 0 23 2 24 15 10
8 -8 15 -19 15 -25z m-1040 -66 c0 -16 -6 -25 -15 -25 -9 0 -15 9 -15 25 0 16
6 25 15 25 9 0 15 -9 15 -25z m80 0 c0 -16 -6 -25 -15 -25 -9 0 -15 9 -15 25
0 16 6 25 15 25 9 0 15 -9 15 -25z m80 10 c0 -8 -6 -15 -12 -15 -9 0 -8 -4 2
-10 13 -8 12 -10 -2 -10 -10 0 -18 7 -18 15 0 8 6 15 13 15 8 0 7 4 -3 10 -13
8 -12 10 3 10 9 0 17 -7 17 -15z m71 6 c6 10 9 6 9 -14 0 -25 -2 -27 -15 -13
-8 8 -15 21 -14 28 0 10 2 10 6 -1 5 -11 7 -11 14 0z m88 -18 c-1 -22 -2 -23
-6 -8 -3 11 -10 23 -17 27 -7 5 -5 8 7 8 12 0 17 -7 16 -27z m73 2 c3 -15 1
-25 -6 -25 -6 0 -11 11 -11 25 0 14 3 25 6 25 4 0 9 -11 11 -25z m88 0 c0 -16
-6 -25 -15 -25 -9 0 -15 9 -15 25 0 16 6 25 15 25 9 0 15 -9 15 -25z m80 10
c0 -8 -6 -15 -12 -15 -9 0 -8 -4 2 -10 13 -8 12 -10 -2 -10 -10 0 -18 7 -18
15 0 8 6 15 13 15 8 0 7 4 -3 10 -13 8 -12 10 3 10 9 0 17 -7 17 -15z m72 -10
c3 -15 1 -25 -6 -25 -6 0 -11 11 -11 25 0 14 3 25 6 25 4 0 9 -11 11 -25z m80
0 c3 -15 1 -25 -6 -25 -6 0 -11 11 -11 25 0 14 3 25 6 25 4 0 9 -11 11 -25z
m80 0 c3 -15 1 -25 -6 -25 -6 0 -11 11 -11 25 0 14 3 25 6 25 4 0 9 -11 11
-25z m78 15 c-10 -6 -11 -10 -2 -10 6 0 12 -7 12 -15 0 -8 -8 -15 -17 -15 -15
0 -16 2 -3 10 10 6 11 10 3 10 -7 0 -13 7 -13 15 0 8 8 15 18 15 14 0 15 -2 2
-10z m90 -5 c0 -8 -6 -15 -12 -15 -9 0 -8 -4 2 -10 13 -8 12 -10 -2 -10 -10 0
-18 7 -18 15 0 8 6 15 13 15 8 0 7 4 -3 10 -13 8 -12 10 3 10 9 0 17 -7 17
-15z m79 -12 c-1 -22 -2 -23 -6 -8 -3 11 -10 23 -17 27 -7 5 -5 8 7 8 12 0 17
-7 16 -27z m-49 -78 l0 -45 -205 0 -205 0 0 45 0 45 205 0 205 0 0 -45z m-990
0 c0 -16 -6 -25 -15 -25 -9 0 -15 9 -15 25 0 16 6 25 15 25 9 0 15 -9 15 -25z
m71 16 c6 10 9 6 9 -14 0 -25 -2 -27 -15 -13 -8 8 -15 21 -14 28 0 10 2 10 6
-1 5 -11 7 -11 14 0z m79 -1 c-10 -6 -11 -10 -2 -10 6 0 12 -7 12 -15 0 -8 -8
-15 -17 -15 -15 0 -16 2 -3 10 10 6 11 10 3 10 -7 0 -13 7 -13 15 0 8 8 15 18
15 14 0 15 -2 2 -10z m90 -5 c0 -8 -6 -15 -12 -15 -9 0 -8 -4 2 -10 13 -8 12
-10 -2 -10 -10 0 -18 7 -18 15 0 8 6 15 13 15 8 0 7 4 -3 10 -13 8 -12 10 3
10 9 0 17 -7 17 -15z m72 -10 c3 -15 1 -25 -6 -25 -6 0 -11 11 -11 25 0 14 3
25 6 25 4 0 9 -11 11 -25z m88 -14 c0 -6 -7 -11 -15 -11 -9 0 -15 10 -15 26 0
23 2 24 15 10 8 -8 15 -19 15 -25z m80 14 c0 -17 -5 -25 -17 -25 -14 0 -15 2
-5 9 8 4 14 12 14 16 0 4 -6 12 -14 16 -10 7 -9 9 5 9 12 0 17 -8 17 -25z m80
0 c0 -16 -6 -25 -15 -25 -9 0 -15 9 -15 25 0 16 6 25 15 25 9 0 15 -9 15 -25z
m471 16 c6 10 9 6 9 -14 0 -25 -2 -27 -15 -13 -8 8 -15 21 -14 28 0 10 2 10 6
-1 5 -11 7 -11 14 0z m-1031 -96 c0 -16 -6 -25 -15 -25 -9 0 -15 9 -15 25 0
16 6 25 15 25 9 0 15 -9 15 -25z m71 16 c6 10 9 6 9 -14 0 -25 -2 -27 -15 -13
-8 8 -15 21 -14 28 0 10 2 10 6 -1 5 -11 7 -11 14 0z m81 -16 c3 -15 1 -25 -6
-25 -6 0 -11 11 -11 25 0 14 3 25 6 25 4 0 9 -11 11 -25z m88 0 c0 -16 -6 -25
-15 -25 -9 0 -15 9 -15 25 0 16 6 25 15 25 9 0 15 -9 15 -25z m80 10 c0 -8 -6
-15 -12 -15 -9 0 -8 -4 2 -10 13 -8 12 -10 -2 -10 -10 0 -18 7 -18 15 0 8 6
15 13 15 8 0 7 4 -3 10 -13 8 -12 10 3 10 9 0 17 -7 17 -15z m79 -12 c-1 -22
-2 -23 -6 -8 -3 11 -10 23 -17 27 -7 5 -5 8 7 8 12 0 17 -7 16 -27z m81 12 c0
-8 -6 -15 -12 -15 -9 0 -8 -4 2 -10 13 -8 12 -10 -2 -10 -10 0 -18 7 -18 15 0
8 6 15 13 15 8 0 7 4 -3 10 -13 8 -12 10 3 10 9 0 17 -7 17 -15z m72 -10 c3
-15 1 -25 -6 -25 -6 0 -11 11 -11 25 0 14 3 25 6 25 4 0 9 -11 11 -25z m87 -2
c-1 -22 -2 -23 -6 -8 -3 11 -10 23 -17 27 -7 5 -5 8 7 8 12 0 17 -7 16 -27z
m81 2 c0 -16 -6 -25 -15 -25 -9 0 -15 9 -15 25 0 16 6 25 15 25 9 0 15 -9 15
-25z m80 0 c0 -17 -5 -25 -17 -25 -14 0 -15 2 -5 9 8 4 14 12 14 16 0 4 -6 12
-14 16 -10 7 -9 9 5 9 12 0 17 -8 17 -25z m80 -14 c0 -6 -7 -11 -15 -11 -9 0
-15 10 -15 26 0 23 2 24 15 10 8 -8 15 -19 15 -25z m80 14 c0 -16 -6 -25 -15
-25 -9 0 -15 9 -15 25 0 16 6 25 15 25 9 0 15 -9 15 -25z m72 0 c3 -15 1 -25
-6 -25 -6 0 -11 11 -11 25 0 14 3 25 6 25 4 0 9 -11 11 -25z m-1032 -80 c0
-16 -6 -25 -15 -25 -9 0 -15 9 -15 25 0 16 6 25 15 25 9 0 15 -9 15 -25z m80
10 c0 -8 -6 -15 -12 -15 -9 0 -8 -4 2 -10 13 -8 12 -10 -2 -10 -10 0 -18 7
-18 15 0 8 6 15 13 15 8 0 7 4 -3 10 -13 8 -12 10 3 10 9 0 17 -7 17 -15z m79
-12 c-1 -22 -2 -23 -6 -8 -3 11 -10 23 -17 27 -7 5 -5 8 7 8 12 0 17 -7 16
-27z m81 2 c0 -17 -5 -25 -17 -25 -14 0 -15 2 -5 9 8 4 14 12 14 16 0 4 -6 12
-14 16 -10 7 -9 9 5 9 12 0 17 -8 17 -25z m80 0 c0 -16 -6 -25 -15 -25 -9 0
-15 9 -15 25 0 16 6 25 15 25 9 0 15 -9 15 -25z m71 16 c6 10 9 6 9 -14 0 -25
-2 -27 -15 -13 -8 8 -15 21 -14 28 0 10 2 10 6 -1 5 -11 7 -11 14 0z m79 -1
c-10 -6 -11 -10 -2 -10 6 0 12 -7 12 -15 0 -8 -8 -15 -17 -15 -15 0 -16 2 -3
10 10 6 11 10 3 10 -7 0 -13 7 -13 15 0 8 8 15 18 15 14 0 15 -2 2 -10z m80 0
c-10 -6 -11 -10 -2 -10 6 0 12 -7 12 -15 0 -8 -8 -15 -17 -15 -15 0 -16 2 -3
10 10 6 11 10 3 10 -7 0 -13 7 -13 15 0 8 8 15 18 15 14 0 15 -2 2 -10z m81 1
c6 10 9 6 9 -14 0 -25 -2 -27 -15 -13 -8 8 -15 21 -14 28 0 10 2 10 6 -1 5
-11 7 -11 14 0z m89 -16 c0 -16 -6 -25 -15 -25 -9 0 -15 9 -15 25 0 16 6 25
15 25 9 0 15 -9 15 -25z m79 -2 c-1 -22 -2 -23 -6 -8 -3 11 -10 23 -17 27 -7
5 -5 8 7 8 12 0 17 -7 16 -27z m71 17 c-10 -6 -11 -10 -2 -10 6 0 12 -7 12
-15 0 -8 -8 -15 -17 -15 -15 0 -16 2 -3 10 10 6 11 10 3 10 -7 0 -13 7 -13 15
0 8 8 15 18 15 14 0 15 -2 2 -10z m90 -29 c0 -6 -7 -11 -15 -11 -9 0 -15 10
-15 26 0 23 2 24 15 10 8 -8 15 -19 15 -25z m71 30 c6 10 9 6 9 -14 0 -25 -2
-27 -15 -13 -8 8 -15 21 -14 28 0 10 2 10 6 -1 5 -11 7 -11 14 0z m-1032 -98
c-1 -22 -2 -23 -6 -8 -3 11 -10 23 -17 27 -7 5 -5 8 7 8 12 0 17 -7 16 -27z
m81 2 c0 -16 -6 -25 -15 -25 -9 0 -15 9 -15 25 0 16 6 25 15 25 9 0 15 -9 15
-25z m80 -14 c0 -6 -7 -11 -15 -11 -9 0 -15 10 -15 26 0 23 2 24 15 10 8 -8
15 -19 15 -25z m80 24 c0 -8 -6 -15 -12 -15 -9 0 -8 -4 2 -10 13 -8 12 -10 -2
-10 -10 0 -18 7 -18 15 0 8 6 15 13 15 8 0 7 4 -3 10 -13 8 -12 10 3 10 9 0
17 -7 17 -15z m80 -10 c0 -16 -6 -25 -15 -25 -9 0 -15 9 -15 25 0 16 6 25 15
25 9 0 15 -9 15 -25z m72 0 c3 -15 1 -25 -6 -25 -6 0 -11 11 -11 25 0 14 3 25
6 25 4 0 9 -11 11 -25z m88 -14 c0 -6 -7 -11 -15 -11 -9 0 -15 10 -15 26 0 23
2 24 15 10 8 -8 15 -19 15 -25z m70 29 c-10 -6 -11 -10 -2 -10 6 0 12 -7 12
-15 0 -8 -8 -15 -17 -15 -15 0 -16 2 -3 10 10 6 11 10 3 10 -7 0 -13 7 -13 15
0 8 8 15 18 15 14 0 15 -2 2 -10z m89 -17 c-1 -22 -2 -23 -6 -8 -3 11 -10 23
-17 27 -7 5 -5 8 7 8 12 0 17 -7 16 -27z m81 2 c0 -17 -5 -25 -17 -25 -14 0
-15 2 -5 9 8 4 14 12 14 16 0 4 -6 12 -14 16 -10 7 -9 9 5 9 12 0 17 -8 17
-25z m80 10 c0 -8 -6 -15 -12 -15 -9 0 -8 -4 2 -10 13 -8 12 -10 -2 -10 -10 0
-18 7 -18 15 0 8 6 15 13 15 8 0 7 4 -3 10 -13 8 -12 10 3 10 9 0 17 -7 17
-15z m80 -10 c0 -16 -6 -25 -15 -25 -9 0 -15 9 -15 25 0 16 6 25 15 25 9 0 15
-9 15 -25z m80 0 c0 -17 -5 -25 -17 -25 -14 0 -15 2 -5 9 8 4 14 12 14 16 0 4
-6 12 -14 16 -10 7 -9 9 5 9 12 0 17 -8 17 -25z m80 10 c0 -8 -6 -15 -12 -15
-9 0 -8 -4 2 -10 13 -8 12 -10 -2 -10 -10 0 -18 7 -18 15 0 8 6 15 13 15 8 0
7 4 -3 10 -13 8 -12 10 3 10 9 0 17 -7 17 -15z m-1040 -104 c0 -6 -7 -11 -15
-11 -9 0 -15 10 -15 26 0 23 2 24 15 10 8 -8 15 -19 15 -25z m80 14 c0 -16 -6
-25 -15 -25 -9 0 -15 9 -15 25 0 16 6 25 15 25 9 0 15 -9 15 -25z m70 15 c-10
-6 -11 -10 -2 -10 6 0 12 -7 12 -15 0 -8 -8 -15 -17 -15 -15 0 -16 2 -3 10 10
6 11 10 3 10 -7 0 -13 7 -13 15 0 8 8 15 18 15 14 0 15 -2 2 -10z m90 -15 c0
-16 -6 -25 -15 -25 -9 0 -15 9 -15 25 0 16 6 25 15 25 9 0 15 -9 15 -25z m79
-2 c-1 -22 -2 -23 -6 -8 -3 11 -10 23 -17 27 -7 5 -5 8 7 8 12 0 17 -7 16 -27z
m81 -12 c0 -6 -7 -11 -15 -11 -9 0 -15 10 -15 26 0 23 2 24 15 10 8 -8 15 -19
15 -25z m80 0 c0 -6 -7 -11 -15 -11 -9 0 -15 10 -15 26 0 23 2 24 15 10 8 -8
15 -19 15 -25z m80 24 c0 -8 -6 -15 -12 -15 -9 0 -8 -4 2 -10 13 -8 12 -10 -2
-10 -10 0 -18 7 -18 15 0 8 6 15 13 15 8 0 7 4 -3 10 -13 8 -12 10 3 10 9 0
17 -7 17 -15z m71 6 c6 10 9 6 9 -14 0 -25 -2 -27 -15 -13 -8 8 -15 21 -14 28
0 10 2 10 6 -1 5 -11 7 -11 14 0z m89 -16 c0 -17 -5 -25 -17 -25 -14 0 -15 2
-5 9 8 4 14 12 14 16 0 4 -6 12 -14 16 -10 7 -9 9 5 9 12 0 17 -8 17 -25z m79
-2 c-1 -22 -2 -23 -6 -8 -3 11 -10 23 -17 27 -7 5 -5 8 7 8 12 0 17 -7 16 -27z
m71 17 c-10 -6 -11 -10 -2 -10 6 0 12 -7 12 -15 0 -8 -8 -15 -17 -15 -15 0
-16 2 -3 10 10 6 11 10 3 10 -7 0 -13 7 -13 15 0 8 8 15 18 15 14 0 15 -2 2
-10z m80 0 c-10 -6 -11 -10 -2 -10 6 0 12 -7 12 -15 0 -8 -8 -15 -17 -15 -15
0 -16 2 -3 10 10 6 11 10 3 10 -7 0 -13 7 -13 15 0 8 8 15 18 15 14 0 15 -2 2
-10z m82 -15 c3 -15 1 -25 -6 -25 -6 0 -11 11 -11 25 0 14 3 25 6 25 4 0 9
-11 11 -25z m-1042 -65 c-10 -6 -11 -10 -2 -10 6 0 12 -7 12 -15 0 -8 -8 -15
-17 -15 -15 0 -16 2 -3 10 10 6 11 10 3 10 -7 0 -13 7 -13 15 0 8 8 15 18 15
14 0 15 -2 2 -10z m90 -29 c0 -6 -7 -11 -15 -11 -9 0 -15 10 -15 26 0 23 2 24
15 10 8 -8 15 -19 15 -25z m80 0 c0 -6 -7 -11 -15 -11 -9 0 -15 10 -15 26 0
23 2 24 15 10 8 -8 15 -19 15 -25z m70 29 c-10 -6 -11 -10 -2 -10 6 0 12 -7
12 -15 0 -8 -8 -15 -17 -15 -15 0 -16 2 -3 10 10 6 11 10 3 10 -7 0 -13 7 -13
15 0 8 8 15 18 15 14 0 15 -2 2 -10z m90 -5 c0 -8 -6 -15 -12 -15 -9 0 -8 -4
2 -10 13 -8 12 -10 -2 -10 -10 0 -18 7 -18 15 0 8 6 15 13 15 8 0 7 4 -3 10
-13 8 -12 10 3 10 9 0 17 -7 17 -15z m80 -10 c0 -16 -6 -25 -15 -25 -9 0 -15
9 -15 25 0 16 6 25 15 25 9 0 15 -9 15 -25z m79 -2 c-1 -22 -2 -23 -6 -8 -3
11 -10 23 -17 27 -7 5 -5 8 7 8 12 0 17 -7 16 -27z m73 2 c3 -15 1 -25 -6 -25
-6 0 -11 11 -11 25 0 14 3 25 6 25 4 0 9 -11 11 -25z m88 -14 c0 -6 -7 -11
-15 -11 -9 0 -15 10 -15 26 0 23 2 24 15 10 8 -8 15 -19 15 -25z m80 0 c0 -6
-7 -11 -15 -11 -9 0 -15 10 -15 26 0 23 2 24 15 10 8 -8 15 -19 15 -25z m80
14 c0 -17 -5 -25 -17 -25 -14 0 -15 2 -5 9 8 4 14 12 14 16 0 4 -6 12 -14 16
-10 7 -9 9 5 9 12 0 17 -8 17 -25z m72 0 c3 -15 1 -25 -6 -25 -6 0 -11 11 -11
25 0 14 3 25 6 25 4 0 9 -11 11 -25z m88 0 c0 -17 -5 -25 -17 -25 -14 0 -15 2
-5 9 8 4 14 12 14 16 0 4 -6 12 -14 16 -10 7 -9 9 5 9 12 0 17 -8 17 -25z m70
15 c-10 -6 -11 -10 -2 -10 6 0 12 -7 12 -15 0 -8 -8 -15 -17 -15 -15 0 -16 2
-3 10 10 6 11 10 3 10 -7 0 -13 7 -13 15 0 8 8 15 18 15 14 0 15 -2 2 -10z
m-1110 -421 c0 -6 -7 -17 -15 -25 -13 -14 -15 -13 -15 10 0 16 6 26 15 26 8 0
15 -5 15 -11z m35 -14 c0 -14 -4 -25 -10 -25 -5 0 -10 11 -10 25 0 14 5 25 10
25 6 0 10 -11 10 -25z m38 18 c-7 -2 -13 -11 -13 -18 0 -7 6 -16 13 -18 9 -4
9 -6 0 -6 -6 -1 -15 4 -18 9 -9 15 2 40 17 39 10 0 10 -2 1 -6z m45 -15 c-4
-27 -28 -36 -28 -10 0 20 8 32 22 32 5 0 8 -10 6 -22z m82 -3 c0 -16 -6 -25
-15 -25 -9 0 -15 9 -15 25 0 16 6 25 15 25 9 0 15 -9 15 -25z m73 18 c-7 -2
-13 -11 -13 -18 0 -7 6 -16 13 -18 9 -4 9 -6 0 -6 -6 -1 -15 4 -18 9 -9 15 2
40 17 39 10 0 10 -2 1 -6z m47 -20 c0 -20 -3 -24 -9 -14 -7 11 -9 11 -14 0 -3
-8 -6 -2 -6 14 -1 18 4 27 14 27 10 0 15 -10 15 -27z m40 16 c0 -5 -6 -7 -12
-3 -9 5 -8 2 1 -9 8 -10 11 -20 7 -24 -3 -3 -6 0 -6 8 0 11 -2 11 -10 -1 -8
-12 -10 -9 -10 13 0 17 5 27 15 27 8 0 15 -5 15 -11z m32 -14 c-2 -14 -6 -25
-7 -25 -1 0 -5 11 -7 25 -3 16 -1 25 7 25 8 0 10 -9 7 -25z m48 14 c0 -5 -6
-7 -12 -3 -9 5 -8 2 1 -9 8 -10 11 -20 7 -24 -3 -3 -6 0 -6 8 0 11 -2 11 -10
-1 -8 -12 -10 -9 -10 13 0 17 5 27 15 27 8 0 15 -5 15 -11z m35 -14 c0 -14 -4
-25 -10 -25 -5 0 -10 11 -10 25 0 14 5 25 10 25 6 0 10 -11 10 -25z m43 -3 c2
-15 -2 -22 -12 -22 -11 0 -16 9 -16 26 0 31 23 28 28 -4z m35 21 c-7 -2 -13
-11 -13 -19 0 -9 5 -12 10 -9 6 3 10 1 10 -4 0 -6 -7 -11 -15 -11 -8 0 -15 8
-15 18 0 21 9 32 24 31 6 0 5 -3 -1 -6z m39 -2 c-8 -4 -14 -12 -14 -16 0 -4 6
-12 14 -16 10 -7 9 -9 -4 -9 -13 0 -18 8 -18 25 0 17 5 25 18 25 13 0 14 -2 4
-9z m-435 -17 c-3 -3 -12 -4 -19 -1 -8 3 -5 6 6 6 11 1 17 -2 13 -5z"/>
<path d="M551 1924 c0 -11 3 -14 6 -6 3 7 2 16 -1 19 -3 4 -6 -2 -5 -13z"/>
<path d="M1431 1924 c0 -11 3 -14 6 -6 3 7 2 16 -1 19 -3 4 -6 -2 -5 -13z"/>
<path d="M1611 1924 c0 -11 3 -14 6 -6 3 7 2 16 -1 19 -3 4 -6 -2 -5 -13z"/>
<path d="M791 1784 c0 -11 3 -14 6 -6 3 7 2 16 -1 19 -3 4 -6 -2 -5 -13z"/>
<path d="M1211 1614 c0 -11 3 -14 6 -6 3 7 2 16 -1 19 -3 4 -6 -2 -5 -13z"/>
<path d="M491 1534 c0 -11 3 -14 6 -6 3 7 2 16 -1 19 -3 4 -6 -2 -5 -13z"/>
<path d="M811 1454 c0 -11 3 -14 6 -6 3 7 2 16 -1 19 -3 4 -6 -2 -5 -13z"/>
<path d="M491 1294 c0 -11 3 -14 6 -6 3 7 2 16 -1 19 -3 4 -6 -2 -5 -13z"/>
<path d="M571 1294 c0 -11 3 -14 6 -6 3 7 2 16 -1 19 -3 4 -6 -2 -5 -13z"/>
<path d="M1051 1214 c0 -11 3 -14 6 -6 3 7 2 16 -1 19 -3 4 -6 -2 -5 -13z"/>
<path d="M1131 1214 c0 -11 3 -14 6 -6 3 7 2 16 -1 19 -3 4 -6 -2 -5 -13z"/>
<path d="M731 1134 c0 -11 3 -14 6 -6 3 7 2 16 -1 19 -3 4 -6 -2 -5 -13z"/>
<path d="M1451 1134 c0 -11 3 -14 6 -6 3 7 2 16 -1 19 -3 4 -6 -2 -5 -13z"/>
<path d="M1100 975 l0 -35 195 0 195 0 0 35 0 35 -195 0 -195 0 0 -35z m50 0
c0 -16 -6 -25 -15 -25 -9 0 -15 9 -15 25 0 16 6 25 15 25 9 0 15 -9 15 -25z
m72 0 c3 -15 1 -25 -6 -25 -6 0 -11 11 -11 25 0 14 3 25 6 25 4 0 9 -11 11
-25z m88 10 c0 -8 -6 -15 -12 -15 -9 0 -8 -4 2 -10 13 -8 12 -10 -2 -10 -10 0
-18 7 -18 15 0 8 6 15 13 15 8 0 7 4 -3 10 -13 8 -12 10 3 10 9 0 17 -7 17
-15z m80 -10 c0 -16 -6 -25 -15 -25 -9 0 -15 9 -15 25 0 16 6 25 15 25 9 0 15
-9 15 -25z m71 16 c6 10 9 6 9 -14 0 -25 -2 -27 -15 -13 -8 8 -15 21 -14 28 0
10 2 10 6 -1 5 -11 7 -11 14 0z"/>
<path d="M1131 974 c0 -11 3 -14 6 -6 3 7 2 16 -1 19 -3 4 -6 -2 -5 -13z"/>
<path d="M491 974 c0 -11 3 -14 6 -6 3 7 2 16 -1 19 -3 4 -6 -2 -5 -13z"/>
<path d="M491 894 c0 -11 3 -14 6 -6 3 7 2 16 -1 19 -3 4 -6 -2 -5 -13z"/>
<path d="M1451 894 c0 -11 3 -14 6 -6 3 7 2 16 -1 19 -3 4 -6 -2 -5 -13z"/>
<path d="M491 814 c0 -11 3 -14 6 -6 3 7 2 16 -1 19 -3 4 -6 -2 -5 -13z"/>
<path d="M811 814 c0 -11 3 -14 6 -6 3 7 2 16 -1 19 -3 4 -6 -2 -5 -13z"/>
<path d="M1211 814 c0 -11 3 -14 6 -6 3 7 2 16 -1 19 -3 4 -6 -2 -5 -13z"/>
<path d="M571 734 c0 -11 3 -14 6 -6 3 7 2 16 -1 19 -3 4 -6 -2 -5 -13z"/>
<path d="M1371 734 c0 -11 3 -14 6 -6 3 7 2 16 -1 19 -3 4 -6 -2 -5 -13z"/>
<path d="M891 574 c0 -11 3 -14 6 -6 3 7 2 16 -1 19 -3 4 -6 -2 -5 -13z"/>
<path d="M531 154 c0 -11 3 -14 6 -6 3 7 2 16 -1 19 -3 4 -6 -2 -5 -13z"/>
<path d="M931 154 c0 -11 3 -14 6 -6 3 7 2 16 -1 19 -3 4 -6 -2 -5 -13z"/>
</g>
</svg>
